<?xml version="1.0" encoding="utf-8"?>
<!-- Generator: Adobe Illustrator 26.2.1, SVG Export Plug-In . SVG Version: 6.00 Build 0)  -->
<svg version="1.1" id="Layer_1" xmlns="http://www.w3.org/2000/svg" xmlns:xlink="http://www.w3.org/1999/xlink" x="0px" y="0px"
	 viewBox="0 0 482 72" style="enable-background:new 0 0 482 72;" xml:space="preserve">
<style type="text/css">
	.st0{fill:#FFFFFF;}
	.st1{fill:#A7AAAF;}
	.st2{fill:#BABABA;}
</style>
<g id="XMLID_37_">
	<g id="XMLID_39_">
		<path class="st0" d="M96.9,72L96.9,72c-1.6-0.1-3-1.1-3.6-2.6L71,14.9L47.4,69.3c-0.7,1.5-2.1,2.5-3.6,2.5H11
			c-6.1,0-11-5.5-11-12.2V39.9c0-6.7,4.9-12.1,11-12.1h24.1c2.2,0,4,2,4,4.4s-1.8,4.4-4,4.4H11c-1.6,0-2.9,1.5-2.9,3.2v19.7
			C8,61.5,9.4,63,11,63h30.3L67.5,2.5C68.2,1,69.7,0,71.2,0c1.6,0,3,1,3.6,2.6l22.4,55l15-30.5c0.7-1.4,2.1-2.3,3.6-2.3
			s2.9,1,3.5,2.4l14.1,30.5l7.2-16c1-2.2,3.4-3.1,5.4-2s2.8,3.7,1.8,5.9l-10.7,23.9c-0.7,1.5-2.1,2.5-3.6,2.5l0,0
			c-1.5,0-2.9-0.9-3.6-2.4l-14.2-30.9l-15.2,31C99.7,71.1,98.4,72,96.9,72z"/>
	</g>
</g>
<g id="XMLID_1_">
	<g>
		<g id="XMLID_00000183211214312684602620000000447165021043041209_">
			<path class="st1" d="M216.9,44.1l0.2,8.7h-0.4c-0.8-3-1.9-5.2-3.2-6.6c-1.3-1.5-2.9-2.2-4.8-2.2c-1.4,0-2.7,0.3-3.7,1
				c-1,0.6-2,1.7-2.9,3.2c-1.8,3-2.7,6.4-2.7,10.2c0,1.8,0.2,3.6,0.7,5.2c0.4,1.6,1.1,3.1,1.9,4.3c1.6,2.4,3.6,3.6,6,3.6
				c0.9,0,1.8-0.2,2.6-0.6c0.8-0.4,1.5-1,2-1.8c0.7-1,1.1-2.3,1.1-3.7c0-1.3-0.3-2.3-1-2.9c-0.7-0.6-1.7-0.9-3.2-0.9v-0.5h11.6v0.5
				c-1.1,0.1-1.8,0.3-2.3,0.5c-0.4,0.2-0.8,0.6-1,1.1c-0.2,0.6-0.3,1.8-0.3,3.5c0,0.5,0,1.2,0.1,2.2v0.5c-0.5-0.2-0.8-0.3-1-0.3
				c-0.3,0-0.6,0.2-1,0.5c-1.1,0.8-2.3,1.4-3.7,1.8S209,72,207.5,72c-2.1,0-4.1-0.4-5.8-1.2c-1.7-0.8-3.1-2-4.2-3.5
				c-0.8-1.1-1.4-2.5-1.9-4c-0.5-1.5-0.6-3.2-0.6-4.9c0-2.4,0.4-4.6,1.2-6.7c0.8-2.1,1.9-3.8,3.3-5.1c1.2-1.1,2.5-1.9,4-2.5
				c1.5-0.6,3.1-0.9,4.8-0.9c1,0,1.9,0.1,2.7,0.3c0.8,0.2,1.7,0.5,2.7,1l1.1,0.5c0.3,0.1,0.5,0.2,0.7,0.2c0.5,0,0.9-0.4,1.1-1.3h0.3
				V44.1z"/>
		</g>
		<g id="XMLID_00000134960085724535547490000014351140017910275228_">
			<path class="st1" d="M266.9,71.6h-12v-0.5c1.1-0.1,1.8-0.3,2.3-0.6c0.8-0.5,1.1-1.2,1.1-2.2c0-0.5-0.2-1.3-0.5-2.2l-0.3-0.8
				l-1.8-4.7h-8l-0.9,2.8l-0.5,1.2c-0.5,1.5-0.8,2.6-0.8,3.5c0,0.5,0.1,1,0.3,1.4s0.5,0.8,0.8,1c0.5,0.4,1.1,0.6,1.8,0.6v0.5h-8.2
				v-0.5c0.6,0,1.2-0.2,1.7-0.5s1-0.8,1.4-1.5c0.4-0.5,0.8-1.3,1.1-2.1c0.4-0.9,0.9-2.2,1.5-3.9l6.7-18.9h1l7.9,21.1
				c0.6,1.6,1.1,2.7,1.4,3.4c0.4,0.7,0.7,1.2,1.1,1.5c0.3,0.2,0.6,0.4,1,0.6c0.4,0.1,0.9,0.2,1.7,0.3v0.5H266.9z M255.5,59.7
				l-3.8-10.4l-3.6,10.4C248.1,59.7,255.5,59.7,255.5,59.7z"/>
		</g>
		<g id="XMLID_00000020366037906621811220000014167650025756186000_">
			<path class="st1" d="M286.9,71.6v-0.5c1.2,0,2.2-0.4,2.8-1.1c0.4-0.4,0.6-1,0.8-1.6c0.1-0.7,0.2-1.7,0.2-3v-15
				c0-1.4-0.1-2.5-0.2-3.1c-0.2-0.7-0.4-1.2-0.8-1.7c-0.3-0.3-0.7-0.6-1.1-0.8c-0.4-0.2-1-0.3-1.6-0.3V44h11.7v0.5
				c-0.7,0-1.2,0.1-1.6,0.3c-0.4,0.2-0.8,0.4-1.1,0.8c-0.4,0.4-0.7,1-0.8,1.7c-0.1,0.7-0.2,1.7-0.2,3.1V62c0,1.8,0,3.1,0.1,4
				c0.1,0.9,0.2,1.6,0.5,2.1c0.4,1,1.1,1.7,1.9,2.1c0.8,0.4,2,0.7,3.3,0.7c1.4,0,2.7-0.2,3.7-0.6s1.8-1.1,2.4-2c0.4-0.6,0.8-1.3,1-2
				c0.3-0.8,0.5-1.8,0.8-3h0.4l-0.2,8.2h-22L286.9,71.6L286.9,71.6z"/>
		</g>
		<g id="XMLID_00000071521201241467726840000001380931942699169979_">
			<path class="st1" d="M329,71.6v-0.5c1.2,0,2.2-0.4,2.8-1.1c0.4-0.4,0.6-1,0.8-1.6c0.1-0.7,0.2-1.7,0.2-3v-15
				c0-1.4-0.1-2.5-0.2-3.1c-0.2-0.7-0.4-1.2-0.8-1.7c-0.3-0.3-0.7-0.6-1.1-0.8c-0.4-0.2-1-0.3-1.6-0.3V44h11.6v0.5
				c-0.7,0-1.2,0.1-1.6,0.3s-0.8,0.4-1.1,0.8c-0.4,0.4-0.7,1-0.8,1.7c-0.1,0.7-0.2,1.7-0.2,3.1V62c0,1.8,0,3.1,0.1,4
				c0.1,0.9,0.2,1.6,0.5,2.1c0.4,1,1.1,1.7,1.9,2.1c0.8,0.4,2,0.7,3.3,0.7c1.4,0,2.7-0.2,3.7-0.6s1.8-1.1,2.4-2c0.4-0.6,0.8-1.3,1-2
				c0.3-0.8,0.5-1.8,0.8-3h0.4l-0.2,8.2H329L329,71.6L329,71.6z"/>
		</g>
		<g id="XMLID_00000033359432524849992720000007637224958150173073_">
			<path class="st1" d="M390.9,44.1l0.3,6.6h-0.4c-0.2-1.1-0.4-2.1-0.8-2.8s-0.9-1.4-1.6-1.9c-0.6-0.5-1.2-0.8-2-1s-1.8-0.3-3.1-0.3
				h-4.2v12.1h1.1c1.1,0,1.9-0.1,2.5-0.2c0.6-0.2,1-0.4,1.4-0.9c0.3-0.4,0.6-0.8,0.8-1.4c0.2-0.5,0.3-1.3,0.4-2.3h0.4l-0.1,10.8
				h-0.4c-0.1-1-0.3-1.9-0.5-2.5s-0.5-1.2-0.9-1.6c-0.4-0.4-0.8-0.7-1.4-0.9c-0.6-0.2-1.3-0.3-2.2-0.3h-1v4.6c0,1.8,0,3.2,0.1,4
				c0.1,0.8,0.2,1.5,0.5,2.1c0.4,1,1,1.7,1.9,2.1c0.8,0.4,2,0.7,3.3,0.7c1.5,0,2.7-0.2,3.7-0.6s1.8-1,2.4-1.9c0.4-0.6,0.8-1.2,1.1-2
				c0.3-0.7,0.5-1.7,0.8-2.9h0.4l-0.2,8h-21.8v-0.5c0.7,0,1.3-0.1,1.7-0.3c0.4-0.2,0.8-0.5,1.2-0.8c0.4-0.4,0.6-1,0.8-1.6
				c0.1-0.7,0.2-1.7,0.2-3v-15c0-1.4-0.1-2.4-0.2-3c-0.1-0.7-0.4-1.2-0.8-1.6c-0.3-0.4-0.7-0.7-1.1-0.8c-0.4-0.2-1-0.3-1.7-0.3v-0.5
				L390.9,44.1L390.9,44.1z"/>
		</g>
		<g id="XMLID_00000025403315316543559850000008650271097914440878_">
			<path class="st1" d="M421.7,58.1v7.1c0,1.4,0.1,2.4,0.2,3c0.1,0.7,0.4,1.2,0.8,1.6c0.3,0.4,0.7,0.7,1.1,0.8
				c0.4,0.2,1,0.3,1.7,0.3v0.5h-11.7v-0.5c0.7,0,1.3-0.2,1.7-0.3c0.4-0.2,0.8-0.5,1.1-0.8c0.4-0.4,0.7-1,0.8-1.6
				c0.1-0.7,0.2-1.7,0.2-3.1V50.4c0-1.4-0.1-2.4-0.2-3.1c-0.1-0.7-0.4-1.2-0.8-1.6c-0.3-0.4-0.7-0.7-1.1-0.8c-0.4-0.2-1-0.3-1.7-0.3
				v-0.5h8.8c1.5,0,2.4,0,2.9,0c1.9,0.1,3.4,0.4,4.4,0.8c1.2,0.5,2.1,1.3,2.8,2.4c0.7,1.1,1,2.3,1,3.7c0,2.1-0.7,3.8-2.2,5
				c-0.4,0.4-0.9,0.7-1.5,0.9c-0.5,0.2-1.2,0.5-2.1,0.7c0.7,0.3,1.3,0.7,1.6,1c0.3,0.3,0.5,0.6,0.8,1.1c0.2,0.4,0.6,1.2,1,2.2
				c1.1,2.5,1.9,4.2,2.5,5.4c0.6,1.1,1,2,1.4,2.5c0.3,0.4,0.6,0.7,0.9,0.9c0.3,0.2,0.7,0.3,1.2,0.3v0.5h-6.1
				c-0.3-0.7-0.5-1.2-0.6-1.4l-1.3-3.2c-0.8-1.9-1.5-3.6-2.3-5.1c-0.8-1.5-1.5-2.5-2.1-3c-0.3-0.3-0.7-0.5-1.1-0.6S423,58,422.4,58
				L421.7,58.1L421.7,58.1z M421.7,57.7h0.7c1.5,0,2.6-0.1,3.2-0.3c0.7-0.2,1.3-0.6,1.8-1.2c1.3-1.3,1.9-3,1.9-5
				c0-1.1-0.2-2.1-0.6-3c-0.4-0.9-0.9-1.7-1.5-2.3c-0.5-0.5-1.1-0.8-1.8-1c-0.7-0.2-1.7-0.3-3-0.3h-0.7V57.7z"/>
		</g>
		<g id="XMLID_00000105396011467471049560000017634019711393450140_">
			<path class="st1" d="M463.5,71.6v-0.5c0.7,0,1.3-0.1,1.7-0.3c0.4-0.2,0.8-0.5,1.2-0.8c0.4-0.4,0.6-1,0.8-1.6
				c0.1-0.7,0.2-1.7,0.2-3.1v-3.9c0-0.6-0.1-1.2-0.3-1.9c-0.2-0.8-0.7-1.8-1.4-3l-4.7-7.8l-0.8-1.4c-0.6-1-1.2-1.7-1.8-2.1
				c-0.3-0.2-0.6-0.3-0.9-0.4c-0.3-0.1-0.7-0.1-1.3-0.2v-0.5h11.9v0.5c-1,0.1-1.7,0.2-1.9,0.3c-0.7,0.3-1,0.9-1,1.7
				c0,0.3,0.1,0.7,0.2,1c0.2,0.4,0.4,0.9,0.7,1.5l4.9,8.5l4.2-7.3l0.5-0.8c0.4-0.8,0.7-1.5,0.7-2.3c0-0.9-0.2-1.5-0.7-2
				c-0.5-0.5-1.2-0.7-2.1-0.7V44h8.4v0.5c-0.6,0.1-1.1,0.2-1.5,0.4c-0.3,0.2-0.7,0.4-1,0.8c-0.8,0.9-1.7,2.1-2.8,3.8l-4.2,7
				c-0.5,0.8-0.8,1.4-0.9,1.8c-0.1,0.4-0.2,1-0.2,2v4.9c0,1.4,0.1,2.5,0.2,3.1c0.1,0.6,0.4,1.2,0.8,1.6c0.7,0.8,1.6,1.2,2.9,1.2v0.5
				C475.3,71.6,463.5,71.6,463.5,71.6z"/>
		</g>
	</g>
</g>
<g id="XMLID_18_">
	<path class="st0" d="M77.7,53.4h-14c-1.5,0-2.7-1.3-2.7-2.9s1.2-2.9,2.7-2.9h14.1c1.5,0,2.7,1.3,2.7,2.9S79.2,53.4,77.7,53.4z"/>
</g>
<g>
	<g>
		<path class="st2" d="M209.6,3.8c-0.2,0-0.3-0.1-0.5-0.2c-1.4-1.1-3-1.6-4.7-1.6c-1.1,0-2.1,0.2-3,0.6c-0.9,0.4-1.8,1-2.5,1.7
			c-0.7,0.7-1.3,1.5-1.7,2.5c-0.4,0.9-0.6,2-0.6,3s0.2,2.1,0.6,3c0.4,0.9,1,1.8,1.7,2.5c0.7,0.7,1.5,1.3,2.5,1.7s2,0.6,3,0.6
			c2,0,3.7-0.7,5.2-2l0.2-0.2h0.3c0.2,0,0.4,0.1,0.5,0.3c0.1,0.2,0.2,0.4,0.2,0.6c0,0.2-0.1,0.4-0.3,0.5c-1.8,1.6-3.9,2.4-6.3,2.4
			c-1.3,0-2.5-0.2-3.6-0.7c-1.1-0.5-2.1-1.2-3-2c-0.8-0.8-1.5-1.8-2-3c-0.5-1.1-0.7-2.3-0.7-3.6c0-1.3,0.2-2.5,0.7-3.6
			c0.5-1.1,1.2-2.1,2-3c0.8-0.8,1.8-1.5,3-2c1.1-0.5,2.3-0.7,3.6-0.7c2.1,0,4,0.6,5.7,1.9c0.2,0.1,0.3,0.3,0.3,0.5
			c0,0.2,0,0.4-0.1,0.6C210,3.7,209.8,3.8,209.6,3.8z"/>
		<path class="st2" d="M227.8,6.6l-0.3,0.8c-0.4,0.8-0.9,1.5-1.6,2.1c-0.7,0.6-1.6,0.9-2.5,1.1l-6,0.1v7.7c0,0.2-0.1,0.4-0.2,0.5
			c-0.1,0.1-0.3,0.2-0.6,0.2c-0.2,0-0.4-0.1-0.5-0.2c-0.1-0.1-0.2-0.3-0.2-0.6V9.1h6.7c0.5,0,1-0.1,1.4-0.3c0.5-0.2,0.9-0.4,1.2-0.7
			l0.5-0.4l0.3-0.6c0.2-0.4,0.3-0.9,0.3-1.4s-0.1-1-0.3-1.4c-0.2-0.4-0.5-0.8-0.9-1.1s-0.8-0.5-1.2-0.7c-0.5-0.2-0.9-0.3-1.4-0.3
			h-6.7V1.4c0-0.2,0.1-0.4,0.2-0.6c0.1-0.1,0.3-0.2,0.6-0.2h5.9c0.7,0,1.4,0.1,2,0.4c0.6,0.2,1.2,0.6,1.7,1c0.5,0.4,0.9,1,1.2,1.6
			c0.3,0.6,0.5,1.3,0.5,2V6.6z M226.9,19l-0.2,0.2c-0.1,0.1-0.3,0.1-0.4,0.1c-0.3,0-0.6-0.1-0.7-0.4l-3.5-7.2h1.7l3.2,6.5
			c0.1,0.2,0.1,0.4,0,0.6L226.9,19z"/>
		<path class="st2" d="M243.8,17.5l0.2,0.2c0.1,0.2,0.2,0.4,0.2,0.6c0,0.2-0.1,0.4-0.2,0.6c-0.1,0.2-0.3,0.2-0.5,0.2h-10.3
			c-0.2,0-0.4-0.1-0.5-0.2c-0.1-0.2-0.2-0.3-0.2-0.6V1.2c0-0.2,0.1-0.4,0.2-0.6c0.1-0.2,0.3-0.2,0.5-0.2l10.3,0
			c0.2,0,0.4,0.1,0.5,0.2l0.2,0.2v0.3c0,0.2-0.1,0.4-0.2,0.6C243.9,2,243.7,2,243.5,2L234,2v15.5H243.8z M241.4,10.6h-6.1V9h5.8
			c0.2,0,0.4,0.1,0.5,0.2s0.2,0.3,0.2,0.6c0,0.2-0.1,0.4-0.2,0.5L241.4,10.6z"/>
		<path class="st2" d="M264.3,18c0.1,0.2,0.1,0.4,0,0.6c-0.1,0.3-0.4,0.5-0.7,0.5c-0.4,0-0.6-0.2-0.7-0.5l-6.4-15.3l-6.3,15.3
			c-0.1,0.3-0.4,0.5-0.7,0.5c-0.1,0-0.3,0-0.4-0.1c-0.1-0.1-0.2-0.2-0.3-0.4c-0.1-0.2-0.1-0.4,0-0.6l7.1-17.1c0,0,0-0.1,0-0.1
			s0,0,0-0.1l0.1-0.1c0,0,0,0,0.1-0.1c0,0,0,0,0,0l0,0c0.1-0.1,0.2-0.1,0.3-0.1h0.1c0,0,0,0,0.1,0h0c0,0,0.1,0,0.1,0h0.1
			c0.1,0,0.2,0,0.3,0.1l0,0c0,0,0.1,0.1,0.1,0.1l0.1,0.1c0,0,0,0.1,0,0.1s0,0,0,0.1L264.3,18z"/>
		<path class="st2" d="M274.1,18.5c-0.1-0.1-0.2-0.3-0.2-0.6V1.6h-5.1c-0.2,0-0.4-0.1-0.6-0.2c-0.1-0.1-0.2-0.3-0.2-0.6
			c0-0.2,0.1-0.4,0.2-0.6c0.1-0.2,0.3-0.2,0.6-0.2h11.8c0.2,0,0.4,0.1,0.5,0.2c0.2,0.1,0.2,0.3,0.2,0.5c0,0.2-0.1,0.4-0.2,0.6
			c-0.1,0.1-0.3,0.2-0.6,0.2h-5.1v16.7l-0.2,0.2c-0.2,0.1-0.4,0.2-0.6,0.2S274.3,18.6,274.1,18.5z"/>
		<path class="st2" d="M285.9,19.1l-0.2-0.2c-0.2-0.1-0.2-0.3-0.2-0.5V1l0.2-0.2c0.1-0.2,0.3-0.2,0.5-0.2s0.4,0.1,0.6,0.2
			c0.2,0.2,0.2,0.3,0.2,0.5v17c0,0.2-0.1,0.4-0.2,0.6c-0.2,0.2-0.3,0.2-0.6,0.2H285.9z"/>
		<path class="st2" d="M303.4,0.9c0.1-0.1,0.1-0.3,0.3-0.4c0.1-0.1,0.3-0.2,0.5-0.2c0.1,0,0.3,0,0.4,0.1c0.1,0.1,0.2,0.2,0.3,0.3
			l0.1,0.3c0,0,0,0.1,0,0.1c0,0,0,0.1,0,0.1c0,0,0,0.1-0.1,0.1l-6,17.1v-0.1l0,0.1c0,0,0,0.1-0.1,0.1v0c0,0,0,0-0.1,0.1
			c0,0,0,0-0.1,0l0,0c0,0-0.1,0-0.1,0c0,0-0.1,0-0.1,0.1c0,0,0,0-0.1,0l-0.1,0c0,0,0,0-0.1,0h0c0,0-0.1,0-0.1,0c-0.1,0-0.1,0-0.1,0
			h0c0,0,0,0-0.1,0c0,0,0,0,0,0c-0.1,0-0.1-0.1-0.1-0.1l0,0c0,0-0.1,0-0.1,0l0,0c0,0-0.1-0.1-0.1-0.1c0,0-0.1-0.1-0.1-0.1l-6-17.1
			c-0.1-0.2-0.1-0.4,0-0.6c0.1-0.1,0.2-0.2,0.3-0.3c0.1-0.1,0.3-0.1,0.4-0.1c0.2,0,0.3,0.1,0.5,0.2c0.1,0.1,0.2,0.2,0.3,0.4l5.3,15
			L303.4,0.9z"/>
		<path class="st2" d="M320.7,17.5l0.2,0.2c0.1,0.2,0.2,0.4,0.2,0.6c0,0.2-0.1,0.4-0.2,0.6c-0.1,0.2-0.3,0.2-0.5,0.2h-10.3
			c-0.2,0-0.4-0.1-0.5-0.2c-0.1-0.2-0.2-0.3-0.2-0.6V1.2c0-0.2,0.1-0.4,0.2-0.6c0.1-0.2,0.3-0.2,0.5-0.2l10.3,0
			c0.2,0,0.4,0.1,0.5,0.2l0.2,0.2v0.3c0,0.2-0.1,0.4-0.2,0.6C320.8,2,320.7,2,320.4,2l-9.5,0v15.5H320.7z M318.4,10.6h-6.1V9h5.8
			c0.2,0,0.4,0.1,0.5,0.2s0.2,0.3,0.2,0.6c0,0.2-0.1,0.4-0.2,0.5L318.4,10.6z"/>
		<path class="st2" d="M350.9,18c0.1,0.2,0.1,0.4,0,0.6c-0.1,0.3-0.4,0.5-0.7,0.5c-0.4,0-0.6-0.2-0.7-0.5l-6.4-15.3l-6.3,15.3
			c-0.1,0.3-0.4,0.5-0.7,0.5c-0.1,0-0.3,0-0.4-0.1c-0.1-0.1-0.2-0.2-0.3-0.4c-0.1-0.2-0.1-0.4,0-0.6l7.1-17.1c0,0,0-0.1,0-0.1
			s0,0,0-0.1l0.1-0.1c0,0,0,0,0.1-0.1c0,0,0,0,0,0l0,0c0.1-0.1,0.2-0.1,0.3-0.1h0.1c0,0,0,0,0.1,0h0c0,0,0.1,0,0.1,0h0.1
			c0.1,0,0.2,0,0.3,0.1l0,0c0,0,0.1,0.1,0.1,0.1l0.1,0.1c0,0,0,0.1,0,0.1s0,0,0,0.1L350.9,18z"/>
		<path class="st2" d="M367.5,6.6l-0.3,0.8c-0.4,0.8-0.9,1.5-1.6,2.1c-0.7,0.6-1.6,0.9-2.5,1.1l-6,0.1v7.7c0,0.2-0.1,0.4-0.2,0.5
			c-0.1,0.1-0.3,0.2-0.6,0.2c-0.2,0-0.4-0.1-0.5-0.2c-0.1-0.1-0.2-0.3-0.2-0.6V9.1h6.7c0.5,0,1-0.1,1.4-0.3c0.5-0.2,0.9-0.4,1.2-0.7
			l0.5-0.4l0.3-0.6c0.2-0.4,0.3-0.9,0.3-1.4s-0.1-1-0.3-1.4c-0.2-0.4-0.5-0.8-0.9-1.1s-0.8-0.5-1.2-0.7c-0.5-0.2-0.9-0.3-1.4-0.3
			h-6.7V1.4c0-0.2,0.1-0.4,0.2-0.6c0.1-0.1,0.3-0.2,0.6-0.2h5.9c0.7,0,1.4,0.1,2,0.4c0.6,0.2,1.2,0.6,1.7,1c0.5,0.4,0.9,1,1.2,1.6
			c0.3,0.6,0.5,1.3,0.5,2V6.6z M366.6,19l-0.2,0.2c-0.1,0.1-0.3,0.1-0.4,0.1c-0.3,0-0.6-0.1-0.7-0.4l-3.5-7.2h1.7l3.2,6.5
			c0.1,0.2,0.1,0.4,0,0.6L366.6,19z"/>
		<path class="st2" d="M377.6,18.5c-0.1-0.1-0.2-0.3-0.2-0.6V1.6h-5.1c-0.2,0-0.4-0.1-0.6-0.2c-0.1-0.1-0.2-0.3-0.2-0.6
			c0-0.2,0.1-0.4,0.2-0.6c0.1-0.2,0.3-0.2,0.6-0.2H384c0.2,0,0.4,0.1,0.5,0.2c0.2,0.1,0.2,0.3,0.2,0.5c0,0.2-0.1,0.4-0.2,0.6
			c-0.1,0.1-0.3,0.2-0.6,0.2h-5.1v16.7l-0.2,0.2c-0.2,0.1-0.4,0.2-0.6,0.2C377.9,18.7,377.7,18.6,377.6,18.5z"/>
		<path class="st2" d="M416.8,18.7C416.8,18.7,416.8,18.7,416.8,18.7c-0.1-0.1-0.1-0.1-0.1-0.1c0,0,0,0,0-0.1l-0.1-0.1c0,0,0,0,0,0
			l-5.3-15l-5.3,15c0,0,0,0,0,0.1l0,0.1l-0.2,0.2c0,0,0,0-0.1,0.1c0,0,0,0-0.1,0c0,0-0.1,0-0.1,0.1l-0.1,0h-0.3c0,0,0,0-0.1,0
			c0,0-0.1,0-0.1,0c0,0,0,0-0.1,0c0,0,0,0-0.1,0c0,0,0,0-0.1-0.1l0,0c-0.1-0.1-0.1-0.2-0.2-0.3l-6-17.2c-0.1-0.2-0.1-0.4,0-0.6
			c0.1-0.3,0.4-0.4,0.7-0.4c0.2,0,0.3,0.1,0.4,0.2c0.1,0.1,0.2,0.2,0.3,0.4l5.3,15l5.3-15.1c0,0,0,0,0,0c0,0,0,0,0-0.1c0,0,0,0,0,0
			c0,0,0,0,0,0c0,0,0,0,0,0l0.1-0.1c0,0,0,0,0,0l0.1,0c0,0,0,0,0,0c0,0,0,0,0.1,0l0,0h0c0,0,0,0,0.1,0c0,0,0.1,0,0.1,0h0.1
			c0,0,0,0,0.1,0c0,0,0.1,0,0.1,0c0,0,0,0,0,0l0.1,0.1h0l0.2,0.2c0,0,0,0.1,0,0.1l0.1,0.2l5.3,15l5.3-15c0.1-0.1,0.2-0.3,0.3-0.4
			c0.1-0.1,0.3-0.2,0.4-0.2c0.3,0,0.6,0.1,0.7,0.4c0.1,0.2,0.1,0.4,0,0.6l-6,17.2c0,0.1,0,0.1-0.1,0.1c0,0,0,0.1-0.1,0.1l0,0
			c0,0-0.1,0-0.1,0.1c0,0,0,0,0,0c-0.1,0.1-0.1,0.1-0.1,0.1c0,0-0.1,0-0.1,0h-0.3c-0.1,0-0.2-0.1-0.2-0.1c0,0,0,0,0,0
			C416.9,18.8,416.9,18.8,416.8,18.7C416.8,18.8,416.8,18.8,416.8,18.7L416.8,18.7z"/>
		<path class="st2" d="M443.1,1.8l1.3,1.3c0.8,0.8,1.5,1.8,2,3l0.7,1.7v1.9c0,1.3-0.2,2.5-0.7,3.7c-0.5,1.1-1.1,2.1-2,3
			c-0.8,0.8-1.8,1.5-3,2c-1.1,0.5-2.3,0.7-3.6,0.7c-1.3,0-2.5-0.2-3.6-0.7c-1.1-0.5-2.1-1.1-3-2c-0.8-0.8-1.5-1.8-2-3
			s-0.7-2.4-0.7-3.7c0-1.3,0.2-2.5,0.7-3.6c0.5-1.1,1.1-2.1,2-3c0.8-0.8,1.8-1.5,3-2s2.3-0.7,3.6-0.7c1.3,0,2.5,0.2,3.6,0.7
			L443.1,1.8z M444.3,14.1l0.6-1.4c0.4-0.9,0.6-2,0.6-3c0-1.1-0.2-2.1-0.6-3c-0.4-0.9-1-1.8-1.7-2.5c-0.7-0.7-1.5-1.3-2.5-1.7
			s-2-0.6-3-0.6c-1.1,0-2.1,0.2-3,0.6c-0.9,0.4-1.8,1-2.5,1.7c-0.7,0.7-1.3,1.5-1.7,2.5c-0.4,0.9-0.6,2-0.6,3c0,1.1,0.2,2.1,0.6,3
			c0.4,0.9,1,1.8,1.7,2.5c0.7,0.7,1.5,1.3,2.5,1.7c0.9,0.4,2,0.6,3,0.6c1.1,0,2.1-0.2,3-0.6c0.9-0.4,1.8-1,2.5-1.7L444.3,14.1z"/>
		<path class="st2" d="M464.1,6.6l-0.3,0.8c-0.4,0.8-0.9,1.5-1.6,2.1c-0.7,0.6-1.6,0.9-2.5,1.1l-6,0.1v7.7c0,0.2-0.1,0.4-0.2,0.5
			c-0.1,0.1-0.3,0.2-0.6,0.2c-0.2,0-0.4-0.1-0.5-0.2c-0.1-0.1-0.2-0.3-0.2-0.6V9.1h6.7c0.5,0,1-0.1,1.4-0.3c0.5-0.2,0.9-0.4,1.2-0.7
			l0.5-0.4l0.3-0.6c0.2-0.4,0.3-0.9,0.3-1.4s-0.1-1-0.3-1.4c-0.2-0.4-0.5-0.8-0.9-1.1s-0.8-0.5-1.2-0.7c-0.5-0.2-0.9-0.3-1.4-0.3
			H452V1.4c0-0.2,0.1-0.4,0.2-0.6c0.1-0.1,0.3-0.2,0.6-0.2h5.9c0.7,0,1.4,0.1,2,0.4c0.6,0.2,1.2,0.6,1.7,1c0.5,0.4,0.9,1,1.2,1.6
			c0.3,0.6,0.5,1.3,0.5,2V6.6z M463.2,19l-0.2,0.2c-0.1,0.1-0.3,0.1-0.4,0.1c-0.3,0-0.6-0.1-0.7-0.4l-3.5-7.2h1.7l3.2,6.5
			c0.1,0.2,0.1,0.4,0,0.6L463.2,19z"/>
		<path class="st2" d="M481.3,1.4c0,0.2-0.1,0.4-0.2,0.5l-10.8,11.4v5c0,0.2-0.1,0.4-0.2,0.6c-0.2,0.2-0.3,0.2-0.6,0.2
			c-0.2,0-0.4-0.1-0.5-0.2c-0.1-0.2-0.2-0.3-0.2-0.6v-17c0-0.2,0.1-0.4,0.2-0.5s0.3-0.2,0.6-0.2c0.2,0,0.4,0.1,0.6,0.2
			c0.2,0.1,0.2,0.3,0.2,0.5v9.8L480,0.9c0.1-0.1,0.3-0.2,0.5-0.2h0.3l0.5,0.4V1.4z M481.4,17.9l0.2,0.2v0.3c0,0.2-0.1,0.4-0.2,0.5
			c-0.1,0.1-0.3,0.2-0.5,0.2c-0.2,0-0.4-0.1-0.6-0.2l-7-7.4l1.1-1.1L481.4,17.9z"/>
	</g>
</g>
</svg>
