<?xml version="1.0" encoding="utf-8"?>
<!-- Generator: Adobe Illustrator 26.2.1, SVG Export Plug-In . SVG Version: 6.00 Build 0)  -->
<svg version="1.1" id="Layer_1" xmlns="http://www.w3.org/2000/svg" xmlns:xlink="http://www.w3.org/1999/xlink" x="0px" y="0px"
	 width="65px" height="65px" viewBox="0 0 65 65" style="enable-background:new 0 0 65 65;" xml:space="preserve">
<style type="text/css">
	.st0{fill:#AF764E;}
</style>
<g>
	<path class="st0" d="M36.9,32.9c-0.2,0-0.3-0.1-0.4-0.1l-4-2.9l-4,2.9c-0.1,0.1-0.3,0.1-0.4,0.1s-0.3,0-0.4-0.1
		c-0.2-0.2-0.3-0.5-0.2-0.8l1.5-4.7l-4-2.9c-0.3-0.2-0.4-0.5-0.3-0.8c0.1-0.3,0.4-0.5,0.7-0.5h4.9l1.5-4.7c0.1-0.2,0.2-0.4,0.4-0.4
		c0.1,0,0.1,0,0.2,0c0.3,0,0.6,0.2,0.7,0.5l1.5,4.7h4.9c0.3,0,0.6,0.2,0.7,0.5c0.1,0.3,0,0.6-0.3,0.8l-4,2.9l1.5,4.7
		c0.1,0.3,0,0.6-0.2,0.8C37.2,32.9,37,32.9,36.9,32.9z M30.2,26.5c0.2,0.2,0.3,0.5,0.3,0.8l-1.1,3.2l2.7-2c0.1-0.1,0.3-0.1,0.4-0.1
		c0.1,0,0.3,0,0.4,0.1l2.7,2l-1-3.2c-0.1-0.3,0-0.6,0.3-0.8l2.7-2h-3.4c-0.3,0-0.6-0.2-0.7-0.5l-1.1-3.2L31.4,24
		c-0.1,0.3-0.4,0.5-0.7,0.5h-3.4L30.2,26.5z"/>
	<path class="st0" d="M32.5,38.7c-0.4,0-0.7,0-1.1,0c-6.5-0.6-11.3-5.9-11.3-12.3c0-6.8,5.6-12.3,12.3-12.3
		c6.5,0,11.8,4.8,12.3,11.3c0.6,6.7-4.4,12.8-11.3,13.4h-0.3C33,38.7,32.8,38.7,32.5,38.7z M32.5,15.3c-5.7,0-10.5,4.4-11,10.1
		c-0.3,2.9,0.7,5.8,2.6,8s4.5,3.7,7.5,3.9c0.3,0,0.7,0.1,1,0.1c0.3,0,0.6,0,0.9,0h0.1l0,0c3.6-0.3,6.7-2.3,8.5-5.5l0,0l0.1-0.2
		c0.8-1.3,1.3-2.9,1.3-4.4c0.3-2.9-0.7-5.8-2.6-8c-1.9-2.2-4.5-3.7-7.5-3.9C33.1,15.3,32.8,15.3,32.5,15.3z"/>
	<path class="st0" d="M16.7,61.4c-0.3,0-0.5-0.2-0.6-0.5l-1.6-6.7l-6.8,1.3H7.5c-0.2,0-0.4-0.1-0.6-0.3s-0.2-0.5,0-0.8l3.6-5.6
		l8-12.1l-0.3-0.1c-0.1-0.1-0.3-0.1-0.4-0.1l-0.3-0.2c-1.1-0.2-1.8-0.8-2.4-1.6c-0.3-0.9-0.2-1.9,0.3-2.8c0.3-0.6,0.4-1.1,0.4-1.6
		v-0.1v-0.1c-0.3-0.5-0.6-1-1.1-1.3c-0.8-0.6-1.3-1.5-1.4-2.5c0.1-0.9,0.7-1.8,1.4-2.4c0.5-0.4,0.8-0.8,1.1-1.3v-0.1v-0.1
		c0-0.6-0.1-1.2-0.4-1.6c-0.5-0.9-0.5-1.9-0.2-2.8c0.5-0.8,1.3-1.3,2.3-1.5c0.6-0.1,1.1-0.4,1.5-0.8h0.1v-0.1
		c0.3-0.5,0.4-1.1,0.4-1.6c0-1,0.4-1.9,1.1-2.7c0.5-0.3,1.2-0.5,1.8-0.5c0.3,0,0.6,0,1,0.1c0.3,0.1,0.6,0.1,0.9,0.1
		c0.3,0,0.6,0,0.9-0.1h0.1l0.1-0.1c0.4-0.4,0.8-0.8,1.1-1.3c0.4-1,1.2-1.6,2.1-2c0,0,0,0,0.1,0c0,0,0.1,0,0.2,0
		c0.9,0,1.7,0.3,2.3,0.9c0.5,0.4,1,0.6,1.5,0.8h0.1h0.1c0.6-0.1,1.1-0.4,1.5-0.8c0.7-0.6,1.5-0.9,2.4-0.9c0.1,0,0.2,0,0.3,0
		c0.9,0.3,1.6,1.1,2,1.9c0.3,0.5,0.6,1,1.1,1.3h0.1h0.1c0.3,0.1,0.6,0.1,0.9,0.1c0.3,0,0.6,0,0.9-0.1s0.6-0.1,1-0.1
		c0.7,0,1.3,0.2,1.9,0.5c0.6,0.7,1,1.6,1,2.6c0,0.6,0.1,1.2,0.4,1.6v0.1h0.1c0.5,0.4,1,0.6,1.5,0.8c1,0.2,1.8,0.8,2.4,1.6
		c0.3,0.9,0.2,1.9-0.3,2.8c-0.3,0.6-0.4,1.1-0.4,1.6v0.1v0.1c0.3,0.5,0.6,1,1.1,1.3c0.8,0.6,1.3,1.5,1.4,2.5
		c-0.6,1.2-1.2,2.1-1.9,2.7c-0.5,0.4-0.8,0.8-1.1,1.3v0.1v0.1c0,0.6,0.1,1.2,0.4,1.6c0.5,0.9,0.6,1.9,0.2,2.8
		c-0.5,0.8-1.3,1.3-2.3,1.5c-0.3,0.1-0.5,0.2-0.7,0.3l-0.4,0.1l0.2,0.3c2.6,4,5.1,8,7.7,12l3.6,5.6c0.2,0.2,0.2,0.5,0,0.8
		c-0.1,0.2-0.3,0.3-0.6,0.3h-0.1l-6.7-1.3L48.9,61c-0.1,0.3-0.3,0.5-0.6,0.5h-0.1c-0.2,0-0.4-0.1-0.6-0.3L37.2,45L37,45.1
		c0,0-0.1,0-0.1,0.1c-0.1,0-0.2,0-0.4,0c-0.9,0-1.7-0.3-2.3-0.9c-0.5-0.4-1-0.6-1.5-0.8h-0.1h-0.1c-0.6,0.1-1.1,0.4-1.5,0.8
		c-0.7,0.5-1.4,0.9-2.3,1c-0.1,0-0.3,0-0.4-0.1c-0.1-0.1-0.2-0.1-0.2-0.1L27.9,45L17.4,61.1C17.3,61.3,17.1,61.4,16.7,61.4
		C16.8,61.5,16.8,61.5,16.7,61.4z M40.9,41.7c-0.3,0-0.6,0-0.9,0.1h-0.1h-0.1c-0.4,0.4-0.8,0.8-1.1,1.3c-0.2,0.3-0.4,0.5-0.6,0.8
		l-0.1,0.2l9.8,14.9l1.4-5.8c0.1-0.3,0.4-0.5,0.7-0.5h0.1l5.9,1.1l-2.8-4.2c-2.4-3.7-4.8-7.4-7.2-11.1L45.6,38l-0.1,0.6
		c0,0.1,0,0.1,0,0.2c0,1-0.4,1.9-1.1,2.7c-0.5,0.3-1.2,0.5-1.8,0.5c-0.3,0-0.6,0-1-0.1C41.5,41.7,41.2,41.7,40.9,41.7z M15,52.8
		c0.3,0,0.6,0.2,0.7,0.5l1.4,5.8l9.7-15l-0.1-0.2c-0.2-0.3-0.4-0.6-0.6-0.8c-0.2-0.5-0.6-1-1.1-1.3h-0.1H25
		c-0.3-0.1-0.6-0.1-0.9-0.1c-0.3,0-0.6,0-0.9,0.1c-0.3,0.1-0.6,0.1-1,0.1c-0.7,0-1.3-0.2-1.9-0.5c-0.6-0.7-1-1.6-1-2.6
		c0-0.1,0-0.2,0-0.2l-0.1-0.8l-0.4,0.6c-2.4,3.7-4.8,7.4-7.2,11.1l-2.8,4.2l5.9-1.1C15,52.8,15,52.8,15,52.8z M24.5,40.4
		c0.4,0,0.8,0.1,1.2,0.3c0.7,0.4,1.3,1.1,1.6,1.8c0.2,0.4,0.5,0.8,0.8,1.2c0.1,0.1,0.3,0.2,0.4,0.3h0.1h0.1c0.3,0,0.7-0.2,1.5-0.8
		c0.7-0.6,1.5-0.9,2.3-1c0.8,0.1,1.6,0.4,2.3,1c0.8,0.5,1.3,0.8,1.5,0.8l0,0h0.1c0.2-0.1,0.3-0.2,0.5-0.3c0.3-0.4,0.6-0.8,0.8-1.2
		c0.4-0.8,1-1.3,1.6-1.8c0.5-0.2,1-0.3,1.4-0.3c0.3,0,0.7,0,1,0.1c0.4,0,0.8,0.1,1.2,0.1s0.6-0.1,0.8-0.2c0.3-0.3,0.4-0.9,0.5-1.7
		c0-0.9,0.3-1.7,0.8-2.4c0.1-0.1,0.2-0.2,0.3-0.3c0.6-0.4,1.2-0.8,1.8-0.9c1-0.3,1.4-0.6,1.6-0.9c0.2-0.4,0-1-0.3-1.7
		C48,31.6,47.9,30.7,48,30c0.3-0.8,0.8-1.4,1.3-1.9c0.7-0.7,1.2-1.2,1.2-1.5c0-0.4-0.5-1-1.1-1.5c-0.7-0.6-1.2-1.3-1.4-2
		c-0.1-0.8,0-1.6,0.4-2.4c0.3-0.9,0.5-1.4,0.3-1.8c-0.2-0.3-0.7-0.6-1.6-0.9c-0.9-0.2-1.5-0.6-2.2-1.3c-0.4-0.7-0.7-1.4-0.7-2.3
		c-0.1-0.9-0.2-1.5-0.5-1.8c-0.2-0.1-0.4-0.2-0.8-0.2c-0.3,0-0.8,0-1.1,0.1c-0.4,0.1-0.7,0.1-1,0.1c-0.5,0-1.1-0.1-1.5-0.3
		c-0.7-0.4-1.3-1.1-1.5-1.7c-0.6-1-1-1.4-1.3-1.5l0,0h-0.1c-0.4,0-0.9,0.3-1.5,0.7c-0.8,0.6-1.5,0.9-2.4,1c-0.8-0.1-1.6-0.4-2.3-1
		c-0.7-0.5-1.2-0.8-1.5-0.8l0,0h-0.1c-0.3,0.2-0.7,0.7-1.2,1.5c-0.4,0.8-1,1.3-1.6,1.8c-0.5,0.2-1,0.3-1.4,0.3c-0.3,0-0.7,0-1-0.1
		c-0.4,0-0.8-0.1-1.2-0.1c-0.4,0-0.6,0.1-0.8,0.2c-0.3,0.3-0.4,0.9-0.5,1.7c0,0.9-0.3,1.7-0.8,2.4c-0.6,0.6-1.3,1-2.1,1.2
		c-0.9,0.3-1.5,0.6-1.6,0.9c-0.1,0.3,0,1,0.3,1.7c0.4,0.9,0.5,1.7,0.4,2.5c-0.3,0.8-0.8,1.4-1.3,1.9c-0.7,0.7-1.2,1.2-1.2,1.5
		c0,0.4,0.5,1,1.1,1.5c0.7,0.6,1.2,1.3,1.4,2c0.1,0.8,0,1.6-0.4,2.4c-0.3,0.9-0.5,1.4-0.3,1.8c0.2,0.4,0.8,0.6,1.5,0.9
		c0.7,0.2,1.3,0.5,1.8,0.9l0.1,0.1l0,0l0,0C19.9,36,20,36,20,36.1c0.5,0.7,0.7,1.5,0.7,2.3c0.1,0.9,0.2,1.5,0.5,1.8
		c0.2,0.1,0.4,0.2,0.8,0.2c0.3,0,0.8,0,1.1-0.1c0.5-0.1,0.9-0.1,1.3-0.1L24.5,40.4z"/>
</g>
</svg>
