<?xml version="1.0" encoding="utf-8"?>
<!-- Generator: Adobe Illustrator 26.2.1, SVG Export Plug-In . SVG Version: 6.00 Build 0)  -->
<svg version="1.1" id="Layer_1" xmlns="http://www.w3.org/2000/svg" xmlns:xlink="http://www.w3.org/1999/xlink" x="0px" y="0px"
	 width="65px" height="65px" viewBox="0 0 65 65" style="enable-background:new 0 0 65 65;" xml:space="preserve">
<style type="text/css">
	.st0{fill:#474747;}
</style>
<g>
	<path class="st0" d="M37.1,32.8c-0.2,0-0.3-0.1-0.4-0.1l-4.1-3l-4.2,3c-0.1,0.1-0.3,0.1-0.4,0.1s-0.3,0-0.4-0.1
		c-0.2-0.2-0.3-0.5-0.2-0.8l1.6-4.9l-4.2-3c-0.3-0.2-0.4-0.5-0.3-0.8c0.1-0.3,0.4-0.5,0.7-0.5h5.1l1.6-4.9c0.1-0.2,0.2-0.4,0.4-0.4
		c0.1,0,0.1,0,0.2,0c0.3,0,0.6,0.2,0.7,0.5l1.6,4.9h5.1c0.3,0,0.6,0.2,0.7,0.5c0.1,0.3,0,0.6-0.3,0.8l-4.2,3l1.6,4.9
		c0.1,0.3,0,0.6-0.2,0.8C37.4,32.8,37.2,32.8,37.1,32.8z M30.1,26.2c0.2,0.2,0.3,0.5,0.3,0.8l-1.1,3.3l2.8-2.1
		c0.1-0.1,0.3-0.1,0.4-0.1c0.1,0,0.3,0,0.4,0.1l2.8,2.1L34.7,27c-0.1-0.3,0-0.6,0.3-0.8l2.8-2.1h-3.5c-0.3,0-0.6-0.2-0.7-0.5
		l-1.1-3.3l-1.1,3.3c-0.1,0.3-0.4,0.5-0.7,0.5h-3.5L30.1,26.2z"/>
	<path class="st0" d="M32.5,38.9c-0.4,0-0.7,0-1.1,0c-6.7-0.6-11.7-6.1-11.7-12.8c0-7.1,5.8-12.8,12.8-12.8c6.7,0,12.2,5,12.8,11.7
		c0.6,7-4.6,13.3-11.7,13.9l-0.3,0C33,38.9,32.8,38.9,32.5,38.9z M32.5,14.6c-5.9,0-10.9,4.6-11.4,10.5c-0.3,3,0.7,6,2.7,8.3
		s4.7,3.8,7.8,4c0.3,0,0.7,0.1,1,0.1c0.3,0,0.6,0,0.9,0l0.1,0l0,0c3.7-0.3,7-2.4,8.8-5.7h0l0.1-0.2c0.8-1.4,1.3-3,1.4-4.6
		c0.3-3-0.7-6-2.7-8.3c-2-2.3-4.7-3.8-7.8-4C33.1,14.6,32.8,14.6,32.5,14.6z"/>
	<path class="st0" d="M16.1,62.4c-0.3,0-0.5-0.2-0.6-0.5l-1.7-7l-7.1,1.3c0,0-0.1,0-0.1,0c-0.2,0-0.4-0.1-0.6-0.3
		c-0.2-0.2-0.2-0.5,0-0.8l3.7-5.8L18,36.8l-0.3-0.1c-0.1-0.1-0.3-0.1-0.4-0.1L17,36.4c-1.1-0.2-1.9-0.8-2.5-1.7
		c-0.3-0.9-0.2-2,0.3-2.9c0.3-0.6,0.4-1.1,0.4-1.7l0-0.1l0-0.1c-0.3-0.5-0.6-1-1.1-1.3c-0.8-0.6-1.4-1.6-1.5-2.6
		c0.1-0.9,0.7-1.9,1.5-2.5c0.5-0.4,0.8-0.8,1.1-1.4l0-0.1l0-0.1c0-0.6-0.1-1.2-0.4-1.7c-0.5-0.9-0.5-2-0.2-2.9
		c0.5-0.8,1.4-1.4,2.4-1.6c0.6-0.1,1.1-0.4,1.6-0.8l0.1,0l0-0.1c0.3-0.5,0.4-1.1,0.4-1.7c0-1,0.4-2,1.1-2.8c0.5-0.3,1.2-0.5,1.9-0.5
		c0.3,0,0.6,0,1,0.1c0.3,0.1,0.6,0.1,0.9,0.1s0.6,0,0.9-0.1l0.1,0l0.1-0.1c0.4-0.4,0.8-0.8,1.1-1.4c0.4-1,1.2-1.7,2.2-2.1
		c0,0,0,0,0.1,0c0,0,0.1,0,0.2,0c0.9,0,1.8,0.3,2.4,0.9c0.5,0.4,1,0.6,1.6,0.8l0.1,0l0.1,0c0.6-0.1,1.1-0.4,1.6-0.8
		c0.7-0.6,1.6-0.9,2.5-0.9c0.1,0,0.2,0,0.3,0c0.9,0.3,1.7,1.1,2.1,2c0.3,0.5,0.6,1,1.1,1.4l0.1,0l0.1,0c0.3,0.1,0.6,0.1,0.9,0.1
		s0.6,0,0.9-0.1c0.3-0.1,0.6-0.1,1-0.1c0.7,0,1.4,0.2,2,0.5c0.6,0.7,1,1.7,1,2.7c0,0.6,0.1,1.2,0.4,1.7l0,0.1l0.1,0
		c0.5,0.4,1,0.6,1.6,0.8c1,0.2,1.9,0.8,2.5,1.7c0.3,0.9,0.2,2-0.3,2.9c-0.3,0.6-0.4,1.1-0.4,1.7l0,0.1l0,0.1c0.3,0.5,0.6,1,1.1,1.3
		c0.8,0.6,1.4,1.6,1.5,2.6C52.4,27,51.8,28,51,28.6c-0.5,0.4-0.8,0.8-1.1,1.3l0,0.1l0,0.1c0,0.6,0.1,1.2,0.4,1.7
		c0.5,0.9,0.6,2,0.2,2.9c-0.5,0.8-1.4,1.4-2.4,1.6c-0.3,0.1-0.5,0.2-0.7,0.3L47,36.7l0.2,0.3c2.7,4.1,5.3,8.3,8,12.4l3.7,5.8
		c0.2,0.2,0.2,0.5,0,0.8c-0.1,0.2-0.3,0.3-0.6,0.3c0,0-0.1,0-0.1,0L51.2,55l-1.7,7c-0.1,0.3-0.3,0.5-0.6,0.5c0,0-0.1,0-0.1,0
		c-0.2,0-0.4-0.1-0.6-0.3L37.4,45.4l-0.2,0.1c0,0-0.1,0-0.1,0.1c-0.1,0-0.2,0-0.4,0c-0.9,0-1.8-0.3-2.4-0.9c-0.5-0.4-1-0.6-1.6-0.8
		l-0.1,0l-0.1,0c-0.6,0.1-1.1,0.4-1.6,0.8c-0.7,0.5-1.5,0.9-2.4,1c-0.1,0-0.3,0-0.4-0.1c-0.1-0.1-0.2-0.1-0.2-0.1l-0.2-0.1
		L16.8,62.1c-0.1,0.2-0.3,0.3-0.6,0.3C16.2,62.5,16.2,62.5,16.1,62.4z M41.2,42c-0.3,0-0.6,0-0.9,0.1l-0.1,0l-0.1,0
		c-0.4,0.4-0.8,0.8-1.1,1.4c-0.2,0.3-0.4,0.5-0.6,0.8l-0.1,0.2L48.5,60l1.5-6c0.1-0.3,0.4-0.5,0.7-0.5c0,0,0.1,0,0.1,0l6.1,1.1
		L54,50.2c-2.5-3.8-5-7.7-7.5-11.5l-0.4-0.6L46,38.7c0,0.1,0,0.1,0,0.2c0,1-0.4,2-1.1,2.8c-0.5,0.3-1.2,0.5-1.9,0.5
		c-0.3,0-0.6,0-1-0.1C41.8,42,41.5,42,41.2,42z M14.4,53.5c0.3,0,0.6,0.2,0.7,0.5l1.5,6l10.1-15.6l-0.1-0.2
		c-0.2-0.3-0.4-0.6-0.6-0.8c-0.2-0.5-0.6-1-1.1-1.3l-0.1,0l-0.1,0C24.4,42,24.1,42,23.8,42s-0.6,0-0.9,0.1c-0.3,0.1-0.6,0.1-1,0.1
		c-0.7,0-1.4-0.2-2-0.5c-0.6-0.7-1-1.7-1-2.7c0-0.1,0-0.2,0-0.2L18.8,38l-0.4,0.6c-2.5,3.8-5,7.7-7.5,11.5l-2.9,4.4l6.1-1.1
		C14.3,53.5,14.3,53.5,14.4,53.5z M24.2,40.6c0.4,0,0.8,0.1,1.2,0.3c0.7,0.4,1.3,1.1,1.7,1.9c0.2,0.4,0.5,0.8,0.8,1.2
		c0.1,0.1,0.3,0.2,0.4,0.3l0.1,0l0.1,0c0.3,0,0.7-0.2,1.6-0.8c0.7-0.6,1.6-0.9,2.4-1c0.8,0.1,1.7,0.4,2.4,1c0.8,0.5,1.3,0.8,1.6,0.8
		h0l0.1,0c0.2-0.1,0.3-0.2,0.5-0.3c0.3-0.4,0.6-0.8,0.8-1.2c0.4-0.8,1-1.4,1.7-1.9c0.5-0.2,1-0.3,1.5-0.3c0.3,0,0.7,0,1,0.1
		c0.4,0,0.8,0.1,1.2,0.1c0.4,0,0.6-0.1,0.8-0.2c0.3-0.3,0.4-0.9,0.5-1.8c0-0.9,0.3-1.8,0.8-2.5c0.1-0.1,0.2-0.2,0.3-0.3
		c0.6-0.4,1.2-0.8,1.9-0.9c1-0.3,1.5-0.6,1.7-0.9c0.2-0.4,0-1-0.3-1.8c-0.4-0.9-0.5-1.8-0.4-2.6c0.3-0.8,0.8-1.5,1.4-2
		c0.7-0.7,1.2-1.2,1.2-1.6s-0.5-1-1.1-1.6c-0.7-0.6-1.2-1.3-1.5-2.1c-0.1-0.8,0-1.7,0.4-2.5c0.3-0.9,0.5-1.5,0.3-1.9
		c-0.2-0.3-0.7-0.6-1.7-0.9c-0.9-0.2-1.6-0.6-2.3-1.3c-0.4-0.7-0.7-1.5-0.7-2.4c-0.1-0.9-0.2-1.6-0.5-1.9c-0.2-0.1-0.4-0.2-0.8-0.2
		c-0.3,0-0.8,0-1.1,0.1c-0.4,0.1-0.7,0.1-1,0.1c-0.5,0-1.1-0.1-1.6-0.3c-0.7-0.4-1.3-1.1-1.6-1.8C37.4,8.5,37,8,36.6,7.9l0,0l-0.1,0
		c-0.4,0-0.9,0.3-1.6,0.7c-0.8,0.6-1.6,0.9-2.5,1c-0.8-0.1-1.7-0.4-2.4-1c-0.7-0.5-1.2-0.8-1.6-0.8h0l-0.1,0C28,8,27.6,8.5,27.1,9.4
		c-0.4,0.8-1,1.4-1.7,1.9c-0.5,0.2-1,0.3-1.5,0.3c-0.3,0-0.7,0-1-0.1c-0.4,0-0.8-0.1-1.2-0.1c-0.4,0-0.6,0.1-0.8,0.2
		c-0.3,0.3-0.4,0.9-0.5,1.8c0,0.9-0.3,1.8-0.8,2.5c-0.6,0.6-1.3,1-2.2,1.2c-0.9,0.3-1.6,0.6-1.7,0.9s0,1,0.3,1.8
		c0.4,0.9,0.5,1.8,0.4,2.6c-0.3,0.8-0.8,1.5-1.4,2c-0.7,0.7-1.2,1.2-1.2,1.6s0.5,1,1.1,1.6c0.7,0.6,1.2,1.3,1.5,2.1
		c0.1,0.8,0,1.7-0.4,2.5c-0.3,0.9-0.5,1.5-0.3,1.9c0.2,0.4,0.8,0.6,1.6,0.9c0.7,0.2,1.4,0.5,1.9,0.9l0.1,0.1h0c0,0,0,0,0,0
		c0.1,0.1,0.2,0.1,0.2,0.2c0.5,0.7,0.7,1.6,0.7,2.4c0.1,0.9,0.2,1.6,0.5,1.9c0.2,0.1,0.4,0.2,0.8,0.2c0.3,0,0.8,0,1.1-0.1
		c0.5-0.1,0.9-0.1,1.3-0.1L24.2,40.6z"/>
</g>
</svg>
