<?xml version="1.0" encoding="utf-8"?>
<!-- Generator: Adobe Illustrator 26.2.1, SVG Export Plug-In . SVG Version: 6.00 Build 0)  -->
<svg version="1.1" id="Layer_1" xmlns="http://www.w3.org/2000/svg" xmlns:xlink="http://www.w3.org/1999/xlink" x="0px" y="0px"
	 width="65px" height="65px" viewBox="0 0 65 65" style="enable-background:new 0 0 65 65;" xml:space="preserve">
<style type="text/css">
	.st0{fill:#474747;}
</style>
<g>
	<path class="st0" d="M44.6,59.2c-0.3,0-0.6-0.3-0.6-0.6V45.9H21v12.6c0,0.3-0.3,0.6-0.6,0.6H7.2c-0.3,0-0.6-0.3-0.6-0.6V14.5
		c0,0,0,0,0,0c0,0,0,0,0-0.1c0-0.2,0.1-0.3,0.1-0.3L6.8,14l6.6-6.6c0.1-0.1,0.3-0.2,0.4-0.2c0.2,0,0.3,0.1,0.4,0.2l6.6,6.6
		c0.1,0.1,0.1,0.2,0.1,0.3l0,0.2l0,8.2h23v-8.2c0,0,0,0,0,0c0,0,0,0,0-0.1c0.1-0.2,0.1-0.3,0.2-0.4l0.1-0.1l6.5-6.5
		c0.1-0.1,0.3-0.2,0.4-0.2c0.2,0,0.3,0.1,0.4,0.2l6.6,6.6c0.1,0.1,0.1,0.2,0.1,0.3l0,0.2l0,44c0,0.3-0.3,0.6-0.6,0.6H44.6z
		 M45.2,57.9h12v-3.2h-12V57.9z M7.8,57.9h12v-3.2h-12V57.9z M45.2,53.5h12V15.1h-12V53.5z M7.8,53.5h12V15.1h-12V53.5z M21,44.7h23
		v-5.4H21V44.7z M21,38.1h23V23.9H21V38.1z M46.1,13.9h10.3l-5.2-5.2L46.1,13.9z M8.6,13.9h10.3l-5.2-5.2L8.6,13.9z"/>
	<path class="st0" d="M49,32.7c-0.3,0-0.6-0.3-0.6-0.6v-4.4c0-0.2,0.1-0.3,0.2-0.4l2.2-2.2c0.1-0.1,0.3-0.2,0.4-0.2
		c0.2,0,0.3,0.1,0.4,0.2l2.2,2.2c0.1,0.1,0.2,0.3,0.2,0.4v4.4c0,0.3-0.3,0.6-0.6,0.6H49z M49.6,28v3.6h3.2V28l-1.6-1.6L49.6,28z"/>
	<path class="st0" d="M11.6,45.9c-0.3,0-0.6-0.3-0.6-0.6v-4.4c0-0.2,0.1-0.3,0.2-0.4l2.2-2.2c0.1-0.1,0.3-0.2,0.4-0.2
		c0.2,0,0.3,0.1,0.4,0.2l2.2,2.2c0.1,0.1,0.2,0.3,0.2,0.4v4.4c0,0.3-0.3,0.6-0.6,0.6H11.6z M12.2,41.2v3.6h3.2v-3.6l-1.6-1.6
		L12.2,41.2z"/>
	<path class="st0" d="M11.6,32.7c-0.3,0-0.6-0.3-0.6-0.6v-4.4c0-0.2,0.1-0.3,0.2-0.4l2.2-2.2c0.1-0.1,0.3-0.2,0.4-0.2
		c0.2,0,0.3,0.1,0.4,0.2l2.2,2.2c0.1,0.1,0.2,0.3,0.2,0.4v4.4c0,0.3-0.3,0.6-0.6,0.6H11.6z M12.2,28v3.6h3.2V28l-1.6-1.6L12.2,28z"
		/>
	<path class="st0" d="M49,45.9c-0.3,0-0.6-0.3-0.6-0.6v-4.4c0-0.2,0.1-0.3,0.2-0.4l2.2-2.2c0.1-0.1,0.3-0.2,0.4-0.2
		c0.2,0,0.3,0.1,0.4,0.2l2.2,2.2c0.1,0.1,0.2,0.3,0.2,0.4v4.4c0,0.3-0.3,0.6-0.6,0.6H49z M49.6,41.2v3.6h3.2v-3.6l-1.6-1.6
		L49.6,41.2z"/>
</g>
</svg>
