<?xml version="1.0" encoding="utf-8"?>
<!-- Generator: Adobe Illustrator 26.2.1, SVG Export Plug-In . SVG Version: 6.00 Build 0)  -->
<svg version="1.1" id="Layer_1" xmlns="http://www.w3.org/2000/svg" xmlns:xlink="http://www.w3.org/1999/xlink" x="0px" y="0px"
	 width="65px" height="65px" viewBox="0 0 65 65" style="enable-background:new 0 0 65 65;" xml:space="preserve">
<style type="text/css">
	.st0{fill:#474747;}
</style>
<path class="st0" d="M40.2,59.9c-0.5,0-0.9,0-1.4,0c-6.3-0.4-12-3.3-15.1-7.7c-1.3-1.8-1.6-3.9-0.9-6.2c0.5-1.5,1.2-2.9,2-4.4
	c0.3-0.5,0.6-1.1,0.9-1.7c2.2-4.3,4-9.1-0.3-16.5h0c-0.1-0.2-0.1-0.5,0.1-0.7c4-3.8,9.3-5.9,14.8-5.9c3.2,0,6.3,0.7,9.1,2
	c8.1,3.8,12.9,11.9,12.4,20.8c-0.5,8.9-6.3,16.4-14.8,19.2C44.8,59.5,42.6,59.9,40.2,59.9z M40.3,17.9c-5,0-9.7,1.8-13.5,5.1
	l-0.2,0.2l0.2,0.3c3.9,7.2,2.2,12.6,0,16.9c-0.3,0.6-0.6,1.2-0.9,1.7c-0.8,1.5-1.6,2.9-1.9,4.2c-0.5,1.5-0.7,3.2,0.8,5.2
	c2.9,4.1,8.4,6.8,14.3,7.2c0.5,0,1,0,1.4,0c2.2,0,4.3-0.3,6.3-1c8-2.6,13.5-9.8,14-18.2c0.5-8.4-4.1-16.2-11.7-19.7
	C46.2,18.6,43.3,17.9,40.3,17.9z M45.4,52.6c-0.1,0-0.2,0-0.3,0c-2.4-0.1-4.2-2.2-4.1-4.6c0.1-2.3,2.1-4.1,4.4-4.1
	c0.1,0,0.2,0,0.3,0c2.4,0.1,4.2,2.2,4.1,4.6C49.6,50.8,47.7,52.6,45.4,52.6L45.4,52.6z M45.4,45c-1.7,0-3.1,1.3-3.3,3.1
	c-0.1,0.9,0.2,1.7,0.8,2.4c0.6,0.6,1.4,1,2.2,1.1c0.1,0,0.1,0,0.2,0c1.7,0,3.1-1.3,3.3-3.1c0.1-1.8-1.3-3.3-3.1-3.5
	C45.5,45,45.5,45,45.4,45z M3.5,52.1c-0.1,0-0.2,0-0.2-0.1C3,51.9,2.9,51.6,3,51.3l8.8-23.3c0.1-0.2,0.3-0.4,0.5-0.4
	c1.5,0,2.9,0.6,3.9,1.8c0.1,0.2,0.2,0.4,0.1,0.6L4,51.8C3.9,52,3.7,52.1,3.5,52.1z M8.4,40.1l-4.1,9.7L15.1,30l-0.2-0.2
	c-0.5-0.5-1.1-0.8-1.8-0.9l-0.3,0L8.4,40.1z M34,51.9c-0.1,0-0.2,0-0.3,0c-2.4-0.1-4.2-2.2-4.1-4.6c0.1-2.3,2.1-4.1,4.4-4.1
	c0.1,0,0.2,0,0.3,0c2.4,0.1,4.2,2.2,4.1,4.6C38.2,50.1,36.3,51.9,34,51.9L34,51.9z M34,44.3c-1.7,0-3.1,1.3-3.3,3.1
	c-0.1,0.9,0.2,1.7,0.8,2.4c0.6,0.6,1.4,1,2.3,1.1c0.1,0,0.1,0,0.2,0c1.7,0,3.1-1.3,3.3-3.1c0.1-0.9-0.2-1.7-0.8-2.4
	c-0.6-0.6-1.4-1-2.2-1.1C34.1,44.3,34,44.3,34,44.3z M53.6,43.5c-0.1,0-0.2,0-0.3,0c-1.2-0.1-2.2-0.6-3-1.5c-0.8-0.9-1.2-2-1.1-3.2
	c0.1-2.3,2.1-4.1,4.4-4.1c0.1,0,0.2,0,0.3,0c2.4,0.1,4.2,2.2,4.1,4.6C57.8,41.7,55.9,43.5,53.6,43.5C53.6,43.5,53.6,43.5,53.6,43.5z
	 M53.6,35.9c-1.7,0-3.1,1.3-3.3,3.1c-0.1,0.9,0.2,1.7,0.8,2.4c0.6,0.6,1.4,1,2.2,1.1c0.1,0,0.1,0,0.2,0c1.7,0,3.1-1.3,3.3-3.1
	c0.1-1.8-1.3-3.3-3.1-3.5C53.7,35.9,53.7,35.9,53.6,35.9z M48.5,33.7c-0.1,0-0.2,0-0.3,0c-2.4-0.1-4.2-2.2-4.1-4.6
	c0.1-2.3,2.1-4.1,4.4-4.1c0.1,0,0.2,0,0.3,0c2.4,0.1,4.2,2.2,4.1,4.6C52.7,31.9,50.8,33.7,48.5,33.7C48.5,33.7,48.5,33.7,48.5,33.7z
	 M48.4,26c-1.7,0-3.1,1.3-3.3,3.1c-0.1,1.8,1.3,3.3,3.1,3.5c0.1,0,0.1,0,0.2,0c1.7,0,3.1-1.3,3.3-3.1c0.1-0.9-0.2-1.7-0.8-2.4
	c-0.6-0.6-1.4-1-2.2-1.1C48.6,26,48.5,26,48.4,26z M35,31c-1.2-0.1-2.2-0.6-3-1.5c-0.8-0.9-1.2-2-1.1-3.2c0.1-2.3,2.1-4.1,4.4-4.1
	c0.1,0,0.2,0,0.3,0c1.2,0.1,2.2,0.6,3,1.5c0.8,0.9,1.2,2,1.1,3.2c-0.1,2.3-2.1,4.1-4.4,4.1C35.2,31,35.1,31,35,31z M35.2,23.3
	c-1.7,0-3.1,1.3-3.3,3.1c-0.1,0.9,0.2,1.7,0.8,2.4c0.6,0.6,1.4,1,2.2,1.1c0.1,0,0.1,0,0.2,0c1.7,0,3.1-1.3,3.2-3.1
	c0.1-1.8-1.3-3.3-3.1-3.5C35.4,23.3,35.3,23.3,35.2,23.3z M17.2,27.5c-0.2,0-0.3-0.1-0.4-0.2c-0.8-1-1.8-1.4-3-1.4l0,0
	c-0.1,0-0.2,0-0.3-0.1c-0.2-0.1-0.3-0.3-0.3-0.5c0-0.3,0.3-0.5,0.6-0.5c1.5,0,2.9,0.6,3.9,1.8c0.2,0.3,0.2,0.6-0.1,0.8
	C17.4,27.4,17.3,27.5,17.2,27.5z M18,23.9c-0.5,0-0.9-0.1-1.4-0.3c-0.8-0.4-1.4-1.1-1.7-1.9c-0.3-0.9-0.3-2,0.2-3
	c0.1-0.1,0.2-0.2,0.3-0.3c0.8-0.3,1.3-0.6,1.7-0.9c0.3-0.3,0.4-0.5,0.5-0.8c0.2-0.3,0.4-0.8,0.8-1.2c0.4-0.4,1-0.7,1.9-1
	c0.2-0.1,0.3-0.1,0.4-0.1c0.2,0,0.3,0.1,0.4,0.2l0,0c0.1,0.2,0.2,0.4,0.1,0.6c-0.5,1.1-0.3,1.7,0,2.6l0.1,0.1c0.4,1,0.7,2.2,0.1,3.6
	C20.7,23.1,19.4,23.9,18,23.9L18,23.9z M19.1,16.5c-0.2,0.2-0.3,0.4-0.5,0.7c-0.1,0.3-0.3,0.7-0.8,1.1c-0.3,0.3-0.9,0.6-1.6,0.9
	l-0.2,0.1L16,19.5c-0.5,1.4-0.1,2.5,1.1,3.1c0.3,0.2,0.7,0.2,1,0.2c0.6,0,1.5-0.3,2.2-1.7c0.5-1.1,0.3-1.7,0-2.6l-0.1-0.2
	c-0.2-0.5-0.4-1-0.4-1.7l-0.1-0.9L19.1,16.5z"/>
</svg>
